<?xml version="1.0" encoding="UTF-8" standalone="no"?>
<!-- Created with Inkscape (http://www.inkscape.org/) -->

<svg
   width="650"
   height="250"
   viewBox="0 0 171.97924 66.145836"
   version="1.1"
   id="svg94043"
   inkscape:version="1.1.1 (3bf5ae0d25, 2021-09-20)"
   sodipodi:docname="MathiasJohannsen.svg"
   xmlns:inkscape="http://www.inkscape.org/namespaces/inkscape"
   xmlns:sodipodi="http://sodipodi.sourceforge.net/DTD/sodipodi-0.dtd"
   xmlns="http://www.w3.org/2000/svg"
   xmlns:svg="http://www.w3.org/2000/svg">
  <sodipodi:namedview
     id="namedview94045"
     pagecolor="#ffffff"
     bordercolor="#111111"
     borderopacity="1"
     inkscape:pageshadow="0"
     inkscape:pageopacity="0"
     inkscape:pagecheckerboard="1"
     inkscape:document-units="mm"
     showgrid="false"
     width="209mm"
     units="px"
     inkscape:zoom="0.73406285"
     inkscape:cx="146.44523"
     inkscape:cy="311.28125"
     inkscape:window-width="1920"
     inkscape:window-height="1009"
     inkscape:window-x="-6"
     inkscape:window-y="-3"
     inkscape:window-maximized="1"
     inkscape:current-layer="layer1" />
  <defs
     id="defs94040" />
  <g
     inkscape:label="Ebene 1"
     inkscape:groupmode="layer"
     id="layer1">
    <g
       aria-label="Mathias  Johannsen"
       id="text34068"
       style="font-size:40px"
       transform="matrix(0.26458333,0,0,0.26458333,-65.816668,-109.8022)">
      <path
         id="path53569"
         style="-inkscape-font-specification:'72, ';stroke-width:0.999999"
         d="m 302.20312,435.09961 v 88.55469 h 10.6836 v -59.07813 c 0,-1.92735 -0.0618,-6.47389 -0.1875,-13.63867 l -0.0625,-3.20508 c 0.16759,0.67039 0.90034,2.95297 2.19922,6.84961 1.29888,3.89661 2.36711,6.78836 3.20508,8.67383 l 23.1289,60.39844 h 8.54688 l 22.75195,-60.39844 c 1.04749,-2.47207 2.17751,-5.53056 3.39258,-9.17578 1.21509,-3.64522 1.88603,-5.76106 2.01172,-6.34766 -0.2514,4.18991 -0.37696,9.80468 -0.37696,16.84375 v 160.15039 c 0,5.23739 -1.29873,9.27976 -3.89648,12.12891 -2.59775,2.80724 -6.09668,4.21094 -10.49609,4.21094 -3.22624,0 -6.05422,-0.81711 -8.48438,-2.45118 -2.38825,-1.67597 -4.83956,-4.50394 -7.35352,-8.48437 l -9.80468,6.84961 c 2.51395,3.98043 5.04962,7.08209 7.60547,9.30273 2.59775,2.22066 5.30017,3.7499 8.10742,4.58789 2.84915,0.83798 6.11756,1.25782 9.80469,1.25782 5.44689,0 10.16019,-1.13197 14.14062,-3.39453 3.98043,-2.26254 7.01832,-5.4672 9.11328,-9.61524 2.13685,-4.18991 3.20515,-9.07193 3.20508,-14.64453 l -0.002,-189.375 h -16.5898 l -23.0039,61.40234 c -0.71228,1.63407 -1.57059,3.83426 -2.57618,6.59961 -0.96366,2.72344 -1.57086,4.58817 -1.82226,5.59375 -0.16759,-0.96368 -0.69239,-2.76463 -1.57227,-5.40429 -0.83799,-2.68155 -1.59133,-4.94552 -2.26171,-6.78907 l -23.56836,-61.40234 z"
         transform="translate(-50.484512)"
         sodipodi:nodetypes="cccsccsccccsccccscccccssccccccccccc" />
      <path
         d="m 375.0281,524.9105 q -10.37005,0 -15.8379,-5.34213 -5.405,-5.40501 -5.405,-14.83233 0,-11.37562 8.4846,-16.27782 8.48458,-4.96507 21.11719,-5.21645 l 13.51249,-0.25132 v -4.02232 q 0,-7.03906 -3.64522,-10.99853 -3.5824,-4.02234 -10.24437,-4.02234 -5.40499,0 -9.8044,2.26259 -4.39942,2.26254 -9.61587,7.91891 l -7.10192,-7.35328 q 4.39941,-5.405 11.12424,-8.86169 6.78767,-3.51955 15.64936,-3.51955 7.85609,0 13.44964,3.01675 5.59353,3.01674 8.48458,8.29605 2.89105,5.2793 2.89105,12.12982 v 31.42439 q 0,8.04463 0.50279,14.39238 h -10.93569 q -0.5028,-4.58795 -0.5028,-10.0558 h -0.2514 q -3.83378,5.59353 -8.86168,8.48459 -4.96506,2.82818 -13.0097,2.82818 z m 2.5768,-9.49015 q 6.03349,0 10.37006,-2.38826 4.39941,-2.45111 6.66197,-6.34773 2.26255,-3.95949 2.26255,-8.35888 v -6.47342 l -10.6843,0.25131 q -9.36447,0.25131 -15.0837,3.07959 -5.6564,2.76536 -5.6564,9.67874 0,4.83933 3.20529,7.73038 3.26814,2.82821 8.92453,2.82821 z"
         style="-inkscape-font-specification:'72, ';stroke-width:0.999999"
         id="path53571" />
      <path
         d="m 443.28189,524.65912 q -15.83788,0 -15.83788,-15.39798 v -44.05697 h -8.3589 V 455.714 h 8.61029 l 0.50278,-14.07814 10.5586,-1.13127 V 455.714 h 14.70661 v 9.49017 h -14.70661 v 41.60588 q 0,4.27372 1.6969,5.97062 1.69694,1.63411 6.03349,1.63411 1.38268,0 3.01674,-0.18857 1.63409,-0.25132 2.63968,-0.43994 1.00558,-0.25132 1.44552,-0.3144 l 1.00557,9.67871 q -2.95389,0.75418 -5.53068,1.13127 -2.57683,0.37711 -5.78211,0.37711 z"
         style="-inkscape-font-specification:'72, ';stroke-width:0.999999"
         id="path53573" />
      <path
         d="m 465.02757,430.32306 h 11.37565 v 24.32251 q 0,3.58237 -0.25132,7.41613 -0.18857,3.83378 -0.31439,5.21647 h 0.25131 q 3.77095,-6.85053 8.92454,-9.86727 5.1536,-3.01674 12.88402,-3.01674 11.87841,0 16.65493,6.85052 4.83933,6.85051 4.83933,17.09488 v 45.31397 h -11.3756 v -43.11427 q 0,-7.29045 -2.9539,-11.68987 -2.95391,-4.39943 -11.0614,-4.39943 -5.27931,0 -9.30163,2.32542 -3.95944,2.32538 -6.15918,6.66197 -2.13685,4.27373 -2.13685,10.0558 v 40.16038 h -11.37564 z"
         style="-inkscape-font-specification:'72, ';stroke-width:0.999999"
         id="path53575" />
      <path
         d="m 542.01734,443.08139 q -3.26812,0 -5.46785,-2.13689 -2.13685,-2.19969 -2.13685,-5.46781 0,-3.26816 2.13685,-5.40501 2.19973,-2.19973 5.46785,-2.19973 3.20531,0 5.34216,2.19973 2.13684,2.13685 2.13684,5.40501 0,3.20527 -2.13684,5.40498 -2.13685,2.19972 -5.34216,2.19972 z m -5.65638,12.63261 h 11.3128 v 67.93953 h -11.3128 z"
         style="-inkscape-font-specification:'72, ';stroke-width:0.999999"
         id="path53577" />
      <path
         d="m 582.99477,524.9105 q -10.37007,0 -15.83791,-5.34213 -5.40498,-5.40501 -5.40498,-14.83233 0,-11.37562 8.48456,-16.27782 8.48459,-4.96507 21.1172,-5.21645 l 13.51249,-0.25132 v -4.02232 q 0,-7.03906 -3.64522,-10.99853 -3.58238,-4.02234 -10.24434,-4.02234 -5.405,0 -9.80443,2.26259 -4.39943,2.26254 -9.61587,7.91891 l -7.10191,-7.35328 q 4.39943,-5.405 11.12425,-8.86169 6.78768,-3.51955 15.64934,-3.51955 7.85611,0 13.44966,3.01675 5.59353,3.01674 8.48458,8.29605 2.89105,5.2793 2.89105,12.12982 v 31.42439 q 0,8.04463 0.5028,14.39238 h -10.93571 q -0.50278,-4.58795 -0.50278,-10.0558 h -0.25132 q -3.83376,5.59353 -8.86166,8.48459 -4.96506,2.82818 -13.0097,2.82818 z m 2.5768,-9.49015 q 6.03349,0 10.37005,-2.38826 4.3994,-2.45111 6.66197,-6.34773 2.26254,-3.95949 2.26254,-8.35888 v -6.47342 l -10.68429,0.25131 q -9.36448,0.25131 -15.0837,3.07959 -5.65639,2.76536 -5.65639,9.67874 0,4.83933 3.20528,7.73038 3.26815,2.82821 8.92454,2.82821 z"
         style="-inkscape-font-specification:'72, ';stroke-width:0.999999"
         id="path53579" />
      <path
         d="m 654.83094,524.9105 q -7.98179,0 -15.08371,-2.57681 -7.10191,-2.63963 -12.06696,-7.91891 l 6.66197,-8.10753 q 4.58795,4.65084 9.61585,6.97623 5.02791,2.26257 10.87285,2.26257 6.28486,0 10.43288,-2.26257 4.14805,-2.32539 4.14805,-7.54187 0,-3.51953 -1.69695,-5.59353 -1.6969,-2.13686 -4.46226,-3.33096 -2.76532,-1.25699 -8.17033,-2.89107 l -2.82819,-0.87988 q -6.47343,-1.82263 -10.93569,-3.89664 -4.46227,-2.074 -7.54185,-5.90776 -3.01674,-3.89663 -3.01674,-9.93012 0,-5.97064 2.95389,-10.1815 3.01675,-4.27373 8.42171,-6.41058 5.405,-2.19972 12.56976,-2.19972 6.662,0 12.88403,2.32542 6.22201,2.26256 10.55859,6.41058 l -6.47343,7.9818 q -3.51953,-3.331 -8.1075,-5.21648 -4.52511,-1.94832 -8.86169,-1.94832 -6.03349,0 -9.55302,2.19974 -3.45665,2.13685 -3.45665,6.53628 0,3.07959 1.75975,4.96506 1.82263,1.82258 4.71365,2.9539 2.89105,1.06842 8.61031,2.63963 l 2.1997,0.62848 q 6.53627,1.82263 10.87285,3.8338 4.39939,2.01115 7.47898,6.15916 3.14247,4.08517 3.14247,10.87286 0,6.28486 -3.26816,10.80998 -3.20527,4.52511 -9.05022,6.91337 -5.78209,2.32539 -13.32394,2.32539 z"
         style="-inkscape-font-specification:'72, ';stroke-width:0.999999"
         id="path53581" />
      <path
         d="m 384.01547,652.12798 q -9.36446,0 -16.15214,-4.33659 -6.78766,-4.39938 -10.37004,-12.38119 -3.58239,-7.98179 -3.58239,-18.66608 0,-10.49576 3.45668,-18.41471 3.45669,-7.91896 10.30721,-12.31834 6.85052,-4.39943 16.71778,-4.39943 15.27225,0 22.75126,9.42732 7.54186,9.36445 7.54186,25.70516 0,10.68429 -3.51953,18.66608 -3.51953,7.98181 -10.4329,12.38119 -6.91337,4.33659 -16.71779,4.33659 z m -0.12566,-9.61587 q 8.98736,0 13.95243,-6.34773 4.96505,-6.41056 4.96505,-19.42026 0,-12.82118 -4.77651,-19.10604 -4.71366,-6.34773 -13.51249,-6.34773 -8.86168,0 -13.82674,6.47343 -4.96505,6.41058 -4.96505,18.98034 0,8.54743 2.3254,14.32951 2.38826,5.7821 6.47343,8.61028 4.08518,2.8282 9.36448,2.8282 z"
         style="-inkscape-font-specification:'72, ';stroke-width:0.999999"
         id="path53585" />
      <path
         d="m 428.95234,557.54054 h 11.37565 v 24.32247 q 0,3.58238 -0.25131,7.41617 -0.18857,3.8338 -0.31438,5.21644 h 0.25131 q 3.77092,-6.8505 8.92454,-9.86724 5.15359,-3.01674 12.88398,-3.01674 11.87843,0 16.65495,6.85049 4.83934,6.85054 4.83934,17.09489 v 45.31399 h -11.37561 v -43.11427 q 0,-7.29048 -2.9539,-11.68987 -2.95389,-4.39943 -11.06141,-4.39943 -5.27928,0 -9.30162,2.32539 -3.95947,2.32542 -6.15916,6.662 -2.13689,4.2737 -2.13689,10.0558 v 40.16038 h -11.3756 z"
         style="-inkscape-font-specification:'72, ';stroke-width:0.999999"
         id="path53587" />
      <path
         d="m 518.32335,652.12798 q -10.37007,0 -15.83792,-5.34216 -5.40497,-5.40498 -5.40497,-14.8323 0,-11.37565 8.48456,-16.27782 8.48459,-4.96507 21.1172,-5.21648 l 13.51249,-0.25132 v -4.02232 q 0,-7.03906 -3.64522,-10.99853 -3.58238,-4.02234 -10.24434,-4.02234 -5.405,0 -9.80443,2.26254 -4.39943,2.26259 -9.61587,7.91896 l -7.10191,-7.35332 q 4.39943,-5.40496 11.12423,-8.86166 6.78769,-3.51953 15.64936,-3.51953 7.85611,0 13.44964,3.01674 5.59355,3.01674 8.4846,8.29603 2.89105,5.27931 2.89105,12.12982 v 31.42441 q 0,8.04464 0.50278,14.39239 h -10.93569 q -0.50278,-4.588 -0.50278,-10.05581 h -0.25132 q -3.83376,5.59353 -8.86166,8.48455 -4.96506,2.82822 -13.0097,2.82822 z m 2.5768,-9.49018 q 6.03347,0 10.37005,-2.38826 4.3994,-2.45108 6.66197,-6.3477 2.26254,-3.95948 2.26254,-8.35891 v -6.47342 l -10.68429,0.25131 q -9.36448,0.25131 -15.08371,3.07959 -5.65638,2.76533 -5.65638,9.6787 0,4.83937 3.20528,7.73042 3.26815,2.82817 8.92454,2.82817 z"
         style="-inkscape-font-specification:'72, ';stroke-width:0.999999"
         id="path53589" />
      <path
         d="m 569.29371,597.32382 q 0,-3.89662 -0.12581,-8.73597 -0.12581,-4.83937 -0.25132,-5.6564 h 10.68433 q 0.18856,1.69693 0.31438,5.46783 0.18857,3.77095 0.18857,6.09634 h 0.25132 q 3.45668,-6.41055 8.42175,-9.61587 5.02789,-3.26811 13.38676,-3.26811 10.87286,0 16.15217,6.41058 5.34213,6.3477 5.34213,17.5348 v 45.31399 h -11.37561 v -43.11427 q 0,-7.85612 -3.26816,-11.94128 -3.26812,-4.14802 -10.74712,-4.14802 -5.34216,0 -9.30165,2.32539 -3.95947,2.32542 -6.15916,6.78769 -2.13687,4.39942 -2.13687,10.68429 v 39.4062 h -11.37564 z"
         style="-inkscape-font-specification:'72, ';stroke-width:0.999999"
         id="path53591" />
      <path
         d="m 640.87847,597.32382 q 0,-3.89662 -0.12581,-8.73597 -0.12581,-4.83937 -0.25132,-5.6564 h 10.68429 q 0.18856,1.69693 0.31438,5.46783 0.18857,3.77095 0.18857,6.09634 h 0.25131 q 3.45669,-6.41055 8.42175,-9.61587 5.0279,-3.26811 13.3868,-3.26811 10.87283,0 16.15214,6.41058 5.34216,6.3477 5.34216,17.5348 v 45.31399 h -11.37565 v -43.11427 q 0,-7.85612 -3.26814,-11.94128 -3.26813,-4.14802 -10.74714,-4.14802 -5.34215,0 -9.3016,2.32539 -3.95949,2.32542 -6.15921,6.78769 -2.13686,4.39942 -2.13686,10.68429 v 39.4062 h -11.37563 z"
         style="-inkscape-font-specification:'72, ';stroke-width:0.999999"
         id="path53593" />
      <path
         d="m 733.32906,652.12798 q -7.98181,0 -15.08372,-2.57679 -7.10191,-2.63965 -12.06697,-7.91896 l 6.662,-8.1075 q 4.58797,4.65081 9.61586,6.97623 5.02791,2.26254 10.87283,2.26254 6.28489,0 10.4329,-2.26254 4.14801,-2.32542 4.14801,-7.54187 0,-3.51953 -1.6969,-5.59353 -1.69691,-2.13684 -4.46226,-3.331 -2.76534,-1.25695 -8.17035,-2.89105 l -2.8282,-0.87986 q -6.47343,-1.82263 -10.93571,-3.89664 -4.46223,-2.074 -7.54185,-5.90779 -3.01674,-3.89663 -3.01674,-9.93012 0,-5.97061 2.9539,-10.1815 3.01674,-4.2737 8.42174,-6.41058 5.40501,-2.19969 12.56977,-2.19969 6.66196,0 12.88401,2.32542 6.22202,2.26254 10.55861,6.41055 l -6.47345,7.98179 q -3.51953,-3.33096 -8.10748,-5.21644 -4.52511,-1.9483 -8.86169,-1.9483 -6.03349,0 -9.55302,2.19969 -3.45669,2.13688 -3.45669,6.53628 0,3.07962 1.75978,4.96505 1.8226,1.82262 4.71365,2.95391 2.89105,1.06842 8.61028,2.63963 l 2.19973,0.62851 q 6.53628,1.8226 10.87282,3.83377 4.39942,2.01115 7.47901,6.15919 3.14243,4.08517 3.14243,10.87283 0,6.28489 -3.26812,10.81001 -3.20531,4.52511 -9.05023,6.91334 -5.7821,2.32542 -13.32395,2.32542 z"
         style="-inkscape-font-specification:'72, ';stroke-width:0.999999"
         id="path53595" />
      <path
         d="m 799.63454,652.12798 q -9.93011,0 -16.96918,-4.39943 -6.9762,-4.46226 -10.62145,-12.44403 -3.58238,-8.04465 -3.58238,-18.66612 0,-11.12423 3.83379,-18.98032 3.89664,-7.91896 10.62144,-11.94128 6.72482,-4.08516 15.14657,-4.08516 10.24433,0 16.65492,4.83934 6.41059,4.77652 9.23879,12.19268 2.82817,7.41614 2.82817,15.77505 0,2.13684 -0.25131,5.405 h -46.13109 q 0,5.46784 2.07401,10.68429 2.13685,5.15359 6.47343,8.54743 4.33658,3.331 10.68429,3.331 3.95947,0 7.16475,-1.06844 3.26815,-1.13129 5.84495,-2.89105 2.63965,-1.75978 5.7821,-4.5251 l 6.15918,8.10748 q -3.20531,2.7025 -6.34773,4.7765 -3.14244,2.07404 -7.98181,3.7081 -4.7765,1.63406 -10.62144,1.63406 z m 15.52366,-41.79444 q -0.81705,-9.67871 -5.09076,-14.32954 -4.27372,-4.71365 -12.00411,-4.71365 -4.21086,0 -8.1075,2.01115 -3.83378,1.94832 -6.47343,6.22203 -2.57679,4.27373 -2.89105,10.81001 z"
         style="-inkscape-font-specification:'72, ';stroke-width:0.999999"
         id="path53597" />
      <path
         d="m 841.42899,597.32382 q 0,-3.89662 -0.12581,-8.73597 -0.12581,-4.83937 -0.25131,-5.6564 h 10.68428 q 0.18857,1.69693 0.31438,5.46783 0.18857,3.77095 0.18857,6.09634 h 0.25132 q 3.45668,-6.41055 8.42174,-9.61587 5.02791,-3.26811 13.38682,-3.26811 10.87281,0 16.15212,6.41058 5.34213,6.3477 5.34213,17.5348 v 45.31399 h -11.37561 v -43.11427 q 0,-7.85612 -3.26815,-11.94128 -3.26813,-4.14802 -10.74713,-4.14802 -5.34216,0 -9.30164,2.32539 -3.95945,2.32542 -6.15918,6.78769 -2.13684,4.39942 -2.13684,10.68429 v 39.4062 h -11.37565 z"
         style="-inkscape-font-specification:'72, ';stroke-width:0.999999"
         id="path53599" />
    </g>
  </g>
</svg>
